<svg width="30" height="28" viewBox="0 0 30 28" fill="none" xmlns="http://www.w3.org/2000/svg">
<path d="M28.1994 10.943L21.8557 3.94299C21.7918 3.87251 21.7131 3.81604 21.6248 3.77737C21.5365 3.73869 21.4406 3.71871 21.3436 3.71877H8.65614C8.5596 3.71803 8.464 3.73716 8.37571 3.77487C8.28742 3.81259 8.20847 3.86804 8.14411 3.93752L1.80036 10.9375C1.6909 11.0596 1.63189 11.2163 1.63461 11.3777C1.63733 11.5392 1.70158 11.694 1.81508 11.8125L14.5026 24.9375C14.5662 25.0034 14.6432 25.056 14.7287 25.0919C14.8143 25.1279 14.9066 25.1464 14.9999 25.1464C15.0932 25.1464 15.1855 25.1279 15.2711 25.0919C15.3566 25.056 15.4336 25.0034 15.4972 24.9375L28.1847 11.8125C28.2966 11.6943 28.3599 11.5406 28.3626 11.3804C28.3654 11.2203 28.3073 11.0647 28.1994 10.943ZM9.10247 12.0313L13.022 21.4911L3.8768 12.0313H9.10247ZM19.4337 12.0313L14.9999 22.7325L10.5661 12.0313H19.4337ZM10.9218 10.7188L14.9999 5.46877L19.078 10.7188H10.9218ZM20.8973 12.0313H26.123L16.9778 21.4911L20.8973 12.0313ZM26.1898 10.7188H20.7772L16.3593 5.03127H21.0355L26.1898 10.7188ZM8.96426 5.03127H13.6405L9.22254 10.7188H3.80997L8.96426 5.03127Z" fill="white"/>
</svg>
