{
	"asset":{
		"generator":"Khronos glTF Blender I/O v4.5.48",
		"version":"2.0"
	},
	"extensionsUsed":[
		"KHR_materials_clearcoat"
	],
	"scene":0,
	"scenes":[
		{
			"name":"Scene",
			"nodes":[
				0,
				1
			]
		}
	],
	"nodes":[
		{
			"mesh":0,
			"name":"Cone",
			"rotation":[
				-1,
				0,
				0,
				1.6292068494294654e-07
			],
			"translation":[
				0,
				0.047752752900123596,
				0
			]
		},
		{
			"mesh":1,
			"name":"Cylinder"
		}
	],
	"materials":[
		{
			"alphaMode":"BLEND",
			"doubleSided":true,
			"extensions":{
				"KHR_materials_clearcoat":{
					"clearcoatFactor":1
				}
			},
			"name":"Material.004",
			"pbrMetallicRoughness":{
				"baseColorFactor":[
					0,
					0.343483030796051,
					0.7013196349143982,
					0.8068181872367859
				],
				"metallicFactor":0,
				"roughnessFactor":0.5
			}
		},
		{
			"doubleSided":true,
			"name":"Blue",
			"pbrMetallicRoughness":{
				"baseColorFactor":[
					0.012285268865525723,
					0.6307579278945923,
					0.7011021375656128,
					1
				],
				"metallicFactor":0
			}
		}
	],
	"meshes":[
		{
			"name":"Cone",
			"primitives":[
				{
					"attributes":{
						"POSITION":0,
						"NORMAL":1,
						"TEXCOORD_0":2
					},
					"indices":3,
					"material":0
				}
			]
		},
		{
			"name":"Cylinder.001",
			"primitives":[
				{
					"attributes":{
						"POSITION":4,
						"NORMAL":5,
						"TEXCOORD_0":6
					},
					"indices":7,
					"material":1
				}
			]
		}
	],
	"accessors":[
		{
			"bufferView":0,
			"componentType":5126,
			"count":91,
			"max":[
				0.9749279022216797,
				-0.002086043357849121,
				0.9009688496589661
			],
			"min":[
				-0.9749279022216797,
				-1.394446611404419,
				-1
			],
			"type":"VEC3"
		},
		{
			"bufferView":1,
			"componentType":5126,
			"count":91,
			"type":"VEC3"
		},
		{
			"bufferView":2,
			"componentType":5126,
			"count":91,
			"type":"VEC2"
		},
		{
			"bufferView":3,
			"componentType":5123,
			"count":198,
			"type":"SCALAR"
		},
		{
			"bufferView":4,
			"componentType":5126,
			"count":930,
			"max":[
				0.7199999690055847,
				0.4922206699848175,
				0.699999988079071
			],
			"min":[
				-0.7182461023330688,
				-1.4083889722824097,
				-0.699999988079071
			],
			"type":"VEC3"
		},
		{
			"bufferView":5,
			"componentType":5126,
			"count":930,
			"type":"VEC3"
		},
		{
			"bufferView":6,
			"componentType":5126,
			"count":930,
			"type":"VEC2"
		},
		{
			"bufferView":7,
			"componentType":5123,
			"count":4806,
			"type":"SCALAR"
		}
	],
	"bufferViews":[
		{
			"buffer":0,
			"byteLength":1092,
			"byteOffset":0,
			"target":34962
		},
		{
			"buffer":0,
			"byteLength":1092,
			"byteOffset":1092,
			"target":34962
		},
		{
			"buffer":0,
			"byteLength":728,
			"byteOffset":2184,
			"target":34962
		},
		{
			"buffer":0,
			"byteLength":396,
			"byteOffset":2912,
			"target":34963
		},
		{
			"buffer":0,
			"byteLength":11160,
			"byteOffset":3308,
			"target":34962
		},
		{
			"buffer":0,
			"byteLength":11160,
			"byteOffset":14468,
			"target":34962
		},
		{
			"buffer":0,
			"byteLength":7440,
			"byteOffset":25628,
			"target":34962
		},
		{
			"buffer":0,
			"byteLength":9612,
			"byteOffset":33068,
			"target":34963
		}
	],
	"buffers":[
		{
			"byteLength":42680,
			"uri":"blueberry-diamond-blue.bin"
		}
	]
}
