{
	"asset":{
		"generator":"Khronos glTF Blender I/O v4.5.48",
		"version":"2.0"
	},
	"extensionsUsed":[
		"KHR_materials_clearcoat"
	],
	"scene":0,
	"scenes":[
		{
			"name":"Scene",
			"nodes":[
				0,
				1
			]
		}
	],
	"nodes":[
		{
			"mesh":0,
			"name":"Cylinder"
		},
		{
			"mesh":1,
			"name":"Sphere",
			"scale":[
				0.7941914200782776,
				0.7941914200782776,
				0.7941914200782776
			],
			"translation":[
				0.011029109358787537,
				0.7796129584312439,
				-0.004050195217132568
			]
		}
	],
	"materials":[
		{
			"doubleSided":true,
			"name":"Blue",
			"pbrMetallicRoughness":{
				"baseColorFactor":[
					0.012285268865525723,
					0.6307579278945923,
					0.7011021375656128,
					1
				],
				"metallicFactor":0
			}
		},
		{
			"alphaMode":"BLEND",
			"doubleSided":true,
			"extensions":{
				"KHR_materials_clearcoat":{
					"clearcoatFactor":1
				}
			},
			"name":"Material.004",
			"pbrMetallicRoughness":{
				"baseColorFactor":[
					0.7990984916687012,
					0.20507898926734924,
					0,
					0.6000000238418579
				],
				"metallicFactor":0,
				"roughnessFactor":0.5
			}
		}
	],
	"meshes":[
		{
			"name":"Cylinder.001",
			"primitives":[
				{
					"attributes":{
						"POSITION":0,
						"NORMAL":1,
						"TEXCOORD_0":2
					},
					"indices":3,
					"material":0
				}
			]
		},
		{
			"name":"Sphere",
			"primitives":[
				{
					"attributes":{
						"POSITION":4,
						"NORMAL":5,
						"TEXCOORD_0":6
					},
					"indices":7,
					"material":1
				}
			]
		}
	],
	"accessors":[
		{
			"bufferView":0,
			"componentType":5126,
			"count":930,
			"max":[
				0.7199999690055847,
				0.4922206699848175,
				0.699999988079071
			],
			"min":[
				-0.7182461023330688,
				-1.4083889722824097,
				-0.699999988079071
			],
			"type":"VEC3"
		},
		{
			"bufferView":1,
			"componentType":5126,
			"count":930,
			"type":"VEC3"
		},
		{
			"bufferView":2,
			"componentType":5126,
			"count":930,
			"type":"VEC2"
		},
		{
			"bufferView":3,
			"componentType":5123,
			"count":4806,
			"type":"SCALAR"
		},
		{
			"bufferView":4,
			"componentType":5126,
			"count":559,
			"max":[
				0.9999997019767761,
				1,
				0.9999993443489075
			],
			"min":[
				-0.9999990463256836,
				-1,
				-1
			],
			"type":"VEC3"
		},
		{
			"bufferView":5,
			"componentType":5126,
			"count":559,
			"type":"VEC3"
		},
		{
			"bufferView":6,
			"componentType":5126,
			"count":559,
			"type":"VEC2"
		},
		{
			"bufferView":7,
			"componentType":5123,
			"count":2880,
			"type":"SCALAR"
		}
	],
	"bufferViews":[
		{
			"buffer":0,
			"byteLength":11160,
			"byteOffset":0,
			"target":34962
		},
		{
			"buffer":0,
			"byteLength":11160,
			"byteOffset":11160,
			"target":34962
		},
		{
			"buffer":0,
			"byteLength":7440,
			"byteOffset":22320,
			"target":34962
		},
		{
			"buffer":0,
			"byteLength":9612,
			"byteOffset":29760,
			"target":34963
		},
		{
			"buffer":0,
			"byteLength":6708,
			"byteOffset":39372,
			"target":34962
		},
		{
			"buffer":0,
			"byteLength":6708,
			"byteOffset":46080,
			"target":34962
		},
		{
			"buffer":0,
			"byteLength":4472,
			"byteOffset":52788,
			"target":34962
		},
		{
			"buffer":0,
			"byteLength":5760,
			"byteOffset":57260,
			"target":34963
		}
	],
	"buffers":[
		{
			"byteLength":63020,
			"uri":"orange-round-blue.bin"
		}
	]
}
